<svg width="61" height="68" viewBox="0 0 61 68" fill="none" xmlns="http://www.w3.org/2000/svg">
<g filter="url(#filter0_d_33_346)">
<path fill-rule="evenodd" clip-rule="evenodd" d="M40.3839 39.6428L38.3065 42.9022C48.5818 44.1803 53.2187 47.4591 53.2187 49.4531C53.2187 52.3948 44.2758 56.4844 30.3672 56.4844C16.5398 56.4844 7.51562 52.42 7.51562 49.4531C7.51562 47.4591 12.1525 44.1803 22.4275 42.9022L20.3502 39.6429C14.2946 40.5735 4 43.3467 4 49.4531C4 51.6791 5.45289 54.8514 12.3745 57.3233C17.2075 59.0494 23.5974 60 30.3672 60C43.0264 60 56.7344 56.4291 56.7344 49.4531C56.7344 43.3457 46.4519 40.5754 40.3839 39.6428Z" fill="white"/>
<path fill-rule="evenodd" clip-rule="evenodd" d="M40.3839 39.6428C46.7686 29.6241 45.966 30.874 46.15 30.6128C48.4745 27.3341 49.7031 23.4752 49.7031 19.4531C49.7031 8.78672 41.0475 0 30.3672 0C19.7216 0 11.0312 8.76937 11.0312 19.4531C11.0312 23.4727 12.2856 27.4325 14.6863 30.7554L20.3502 39.6429L22.4275 42.9022L28.8848 53.0346C29.2075 53.5411 29.7665 53.8477 30.3671 53.8477C30.9677 53.8477 31.5268 53.541 31.8494 53.0346L38.3065 42.9022L40.3839 39.6428ZM17.5623 28.7329C17.5834 28.7619 17.6036 28.7914 17.6229 28.8217L30.3672 48.819C44.0134 27.4061 43.13 28.7786 43.2993 28.5552C45.1889 25.8793 46.1875 22.7327 46.1875 19.4531C46.1875 10.6651 39.0905 3.51562 30.3672 3.51562C21.6257 3.51562 14.5469 10.662 14.5469 19.4531C14.5469 22.7275 15.5646 25.9846 17.5623 28.7329Z" fill="white"/>
<path fill-rule="evenodd" clip-rule="evenodd" d="M40.3839 39.6428C46.7686 29.6241 45.966 30.874 46.15 30.6128C48.4745 27.3341 49.7031 23.4752 49.7031 19.4531C49.7031 8.78672 41.0475 0 30.3672 0C19.7216 0 11.0312 8.76937 11.0312 19.4531C11.0312 23.4727 12.2856 27.4325 14.6863 30.7554L20.3502 39.6429L22.4275 42.9022L28.8848 53.0346C29.2075 53.5411 29.7665 53.8477 30.3671 53.8477C30.9677 53.8477 31.5268 53.541 31.8494 53.0346L38.3065 42.9022L40.3839 39.6428ZM17.5623 28.7329C17.5834 28.7619 17.6036 28.7914 17.6229 28.8217L30.3672 48.819C44.0134 27.4061 43.13 28.7786 43.2993 28.5552C45.1889 25.8793 46.1875 22.7327 46.1875 19.4531C46.1875 10.6651 39.0905 3.51562 30.3672 3.51562C21.6257 3.51562 14.5469 10.662 14.5469 19.4531C14.5469 22.7275 15.5646 25.9846 17.5623 28.7329Z" fill="#FFC700"/>
</g>
<path d="M30.3672 10.6641C25.5209 10.6641 21.5781 14.6068 21.5781 19.4531C21.5781 24.2994 25.5209 28.2422 30.3672 28.2422C35.2135 28.2422 39.1562 24.2994 39.1562 19.4531C39.1562 14.6068 35.2135 10.6641 30.3672 10.6641ZM30.3672 24.7266C27.4594 24.7266 25.0937 22.3609 25.0937 19.4531C25.0937 16.5454 27.4594 14.1797 30.3672 14.1797C33.275 14.1797 35.6406 16.5454 35.6406 19.4531C35.6406 22.3609 33.275 24.7266 30.3672 24.7266Z" fill="white"/>
<defs>
<filter id="filter0_d_33_346" x="0" y="0" width="60.7344" height="68" filterUnits="userSpaceOnUse" color-interpolation-filters="sRGB">
<feFlood flood-opacity="0" result="BackgroundImageFix"/>
<feColorMatrix in="SourceAlpha" type="matrix" values="0 0 0 0 0 0 0 0 0 0 0 0 0 0 0 0 0 0 127 0" result="hardAlpha"/>
<feOffset dy="4"/>
<feGaussianBlur stdDeviation="2"/>
<feComposite in2="hardAlpha" operator="out"/>
<feColorMatrix type="matrix" values="0 0 0 0 0 0 0 0 0 0 0 0 0 0 0 0 0 0 0.25 0"/>
<feBlend mode="normal" in2="BackgroundImageFix" result="effect1_dropShadow_33_346"/>
<feBlend mode="normal" in="SourceGraphic" in2="effect1_dropShadow_33_346" result="shape"/>
</filter>
</defs>
</svg>
